<mxfile host="app.diagrams.net" modified="2023-11-25T15:37:06.449Z" agent="Mozilla/5.0 (Windows NT 10.0; Win64; x64) AppleWebKit/537.36 (KHTML, like Gecko) Chrome/119.0.0.0 Safari/537.36" etag="UKarRgA0LDz66QNRb1rs" version="22.1.4" type="device">
  <diagram name="Seite-1" id="RTvqqIRHZmjsnaG3GGHQ">
    <mxGraphModel dx="2059" dy="1136" grid="1" gridSize="10" guides="1" tooltips="1" connect="1" arrows="1" fold="1" page="1" pageScale="1" pageWidth="827" pageHeight="1169" math="0" shadow="0">
      <root>
        <mxCell id="0" />
        <mxCell id="1" parent="0" />
        <mxCell id="t250KOip2t7O9ZdYjOZ2-1" style="edgeStyle=orthogonalEdgeStyle;rounded=0;orthogonalLoop=1;jettySize=auto;html=1;exitX=0;exitY=1;exitDx=0;exitDy=0;strokeWidth=2;fontSize=12;entryX=1;entryY=0;entryDx=0;entryDy=0;" parent="1" source="t250KOip2t7O9ZdYjOZ2-3" target="t250KOip2t7O9ZdYjOZ2-14" edge="1">
          <mxGeometry relative="1" as="geometry">
            <Array as="points">
              <mxPoint x="657" y="150" />
              <mxPoint x="203" y="150" />
            </Array>
          </mxGeometry>
        </mxCell>
        <mxCell id="t250KOip2t7O9ZdYjOZ2-2" value="&lt;font style=&quot;font-size: 14px;&quot;&gt;isRegulatedBy&lt;/font&gt;" style="edgeLabel;html=1;align=center;verticalAlign=middle;resizable=0;points=[];" parent="t250KOip2t7O9ZdYjOZ2-1" vertex="1" connectable="0">
          <mxGeometry x="-0.075" y="-3" relative="1" as="geometry">
            <mxPoint as="offset" />
          </mxGeometry>
        </mxCell>
        <mxCell id="t250KOip2t7O9ZdYjOZ2-65" value="&lt;font style=&quot;font-size: 20px;&quot;&gt;1...&lt;/font&gt;" style="edgeLabel;html=1;align=center;verticalAlign=middle;resizable=0;points=[];" parent="t250KOip2t7O9ZdYjOZ2-1" vertex="1" connectable="0">
          <mxGeometry x="-0.9286" y="3" relative="1" as="geometry">
            <mxPoint x="-33" y="-13" as="offset" />
          </mxGeometry>
        </mxCell>
        <mxCell id="t250KOip2t7O9ZdYjOZ2-92" value="&lt;font style=&quot;font-size: 20px;&quot;&gt;1&lt;/font&gt;" style="edgeLabel;html=1;align=center;verticalAlign=middle;resizable=0;points=[];" parent="t250KOip2t7O9ZdYjOZ2-1" vertex="1" connectable="0">
          <mxGeometry x="0.8292" relative="1" as="geometry">
            <mxPoint as="offset" />
          </mxGeometry>
        </mxCell>
        <mxCell id="t250KOip2t7O9ZdYjOZ2-3" value="Country" style="ellipse;whiteSpace=wrap;html=1;strokeWidth=2;" parent="1" vertex="1">
          <mxGeometry x="640" y="80" width="120" height="60" as="geometry" />
        </mxCell>
        <mxCell id="t250KOip2t7O9ZdYjOZ2-4" style="edgeStyle=orthogonalEdgeStyle;rounded=1;orthogonalLoop=1;jettySize=auto;html=1;exitX=0.5;exitY=0;exitDx=0;exitDy=0;entryX=1;entryY=0.5;entryDx=0;entryDy=0;strokeWidth=2;fontSize=12;" parent="1" source="t250KOip2t7O9ZdYjOZ2-8" target="t250KOip2t7O9ZdYjOZ2-3" edge="1">
          <mxGeometry relative="1" as="geometry">
            <Array as="points">
              <mxPoint x="980" y="110" />
            </Array>
          </mxGeometry>
        </mxCell>
        <mxCell id="t250KOip2t7O9ZdYjOZ2-5" value="&lt;font style=&quot;font-size: 14px;&quot;&gt;operatesInCountry&lt;/font&gt;" style="edgeLabel;html=1;align=center;verticalAlign=middle;resizable=0;points=[];" parent="t250KOip2t7O9ZdYjOZ2-4" vertex="1" connectable="0">
          <mxGeometry x="0.125" relative="1" as="geometry">
            <mxPoint as="offset" />
          </mxGeometry>
        </mxCell>
        <mxCell id="t250KOip2t7O9ZdYjOZ2-68" value="&lt;font style=&quot;font-size: 20px;&quot;&gt;1&lt;/font&gt;" style="edgeLabel;html=1;align=center;verticalAlign=middle;resizable=0;points=[];" parent="t250KOip2t7O9ZdYjOZ2-4" vertex="1" connectable="0">
          <mxGeometry x="0.7907" y="-1" relative="1" as="geometry">
            <mxPoint y="-9" as="offset" />
          </mxGeometry>
        </mxCell>
        <mxCell id="t250KOip2t7O9ZdYjOZ2-8" value="Enterprise" style="ellipse;whiteSpace=wrap;html=1;strokeWidth=2;fillColor=#dae8fc;strokeColor=#6c8ebf;" parent="1" vertex="1">
          <mxGeometry x="920" y="320" width="120" height="60" as="geometry" />
        </mxCell>
        <mxCell id="t250KOip2t7O9ZdYjOZ2-9" style="edgeStyle=orthogonalEdgeStyle;rounded=0;orthogonalLoop=1;jettySize=auto;html=1;exitX=0.5;exitY=1;exitDx=0;exitDy=0;strokeWidth=2;fontSize=12;" parent="1" source="t250KOip2t7O9ZdYjOZ2-11" target="t250KOip2t7O9ZdYjOZ2-14" edge="1">
          <mxGeometry relative="1" as="geometry" />
        </mxCell>
        <mxCell id="t250KOip2t7O9ZdYjOZ2-10" value="&lt;font style=&quot;font-size: 14px;&quot;&gt;&amp;nbsp; &amp;nbsp; &amp;nbsp;has&lt;/font&gt;" style="edgeLabel;html=1;align=center;verticalAlign=middle;resizable=0;points=[];" parent="t250KOip2t7O9ZdYjOZ2-9" vertex="1" connectable="0">
          <mxGeometry x="-0.1333" y="2" relative="1" as="geometry">
            <mxPoint x="-12" as="offset" />
          </mxGeometry>
        </mxCell>
        <mxCell id="t250KOip2t7O9ZdYjOZ2-77" value="&lt;font style=&quot;font-size: 20px;&quot;&gt;1&lt;/font&gt;" style="edgeLabel;html=1;align=center;verticalAlign=middle;resizable=0;points=[];" parent="t250KOip2t7O9ZdYjOZ2-9" vertex="1" connectable="0">
          <mxGeometry x="-0.8" relative="1" as="geometry">
            <mxPoint y="12" as="offset" />
          </mxGeometry>
        </mxCell>
        <mxCell id="t250KOip2t7O9ZdYjOZ2-89" value="&lt;font style=&quot;font-size: 20px;&quot;&gt;1&lt;/font&gt;" style="edgeLabel;html=1;align=center;verticalAlign=middle;resizable=0;points=[];" parent="t250KOip2t7O9ZdYjOZ2-9" vertex="1" connectable="0">
          <mxGeometry x="0.4778" y="-1" relative="1" as="geometry">
            <mxPoint as="offset" />
          </mxGeometry>
        </mxCell>
        <mxCell id="t250KOip2t7O9ZdYjOZ2-11" value="Jurisdiction" style="ellipse;whiteSpace=wrap;html=1;strokeWidth=2;fontSize=12;" parent="1" vertex="1">
          <mxGeometry x="100" y="80" width="120" height="60" as="geometry" />
        </mxCell>
        <mxCell id="t250KOip2t7O9ZdYjOZ2-12" style="edgeStyle=orthogonalEdgeStyle;rounded=1;orthogonalLoop=1;jettySize=auto;html=1;exitX=1;exitY=0.5;exitDx=0;exitDy=0;strokeWidth=2;fontSize=12;entryX=0;entryY=0.5;entryDx=0;entryDy=0;" parent="1" source="t250KOip2t7O9ZdYjOZ2-14" target="t250KOip2t7O9ZdYjOZ2-29" edge="1">
          <mxGeometry relative="1" as="geometry">
            <Array as="points">
              <mxPoint x="300" y="350" />
              <mxPoint x="300" y="390" />
            </Array>
          </mxGeometry>
        </mxCell>
        <mxCell id="t250KOip2t7O9ZdYjOZ2-13" value="&lt;font style=&quot;font-size: 14px;&quot;&gt;requires&lt;/font&gt;" style="edgeLabel;html=1;align=center;verticalAlign=middle;resizable=0;points=[];" parent="t250KOip2t7O9ZdYjOZ2-12" vertex="1" connectable="0">
          <mxGeometry x="-0.2" y="-3" relative="1" as="geometry">
            <mxPoint x="3" y="-6" as="offset" />
          </mxGeometry>
        </mxCell>
        <mxCell id="t250KOip2t7O9ZdYjOZ2-14" value="Regulation" style="ellipse;whiteSpace=wrap;html=1;strokeWidth=2;" parent="1" vertex="1">
          <mxGeometry x="100" y="320" width="120" height="60" as="geometry" />
        </mxCell>
        <mxCell id="t250KOip2t7O9ZdYjOZ2-15" style="edgeStyle=orthogonalEdgeStyle;rounded=1;orthogonalLoop=1;jettySize=auto;html=1;exitX=0.5;exitY=0;exitDx=0;exitDy=0;entryX=0.5;entryY=1;entryDx=0;entryDy=0;dashed=1;dashPattern=8 8;strokeWidth=2;" parent="1" source="t250KOip2t7O9ZdYjOZ2-16" target="t250KOip2t7O9ZdYjOZ2-3" edge="1">
          <mxGeometry relative="1" as="geometry" />
        </mxCell>
        <mxCell id="t250KOip2t7O9ZdYjOZ2-16" value="US" style="ellipse;whiteSpace=wrap;html=1;strokeWidth=2;" parent="1" vertex="1">
          <mxGeometry x="610" y="210" width="76" height="40" as="geometry" />
        </mxCell>
        <mxCell id="t250KOip2t7O9ZdYjOZ2-17" style="edgeStyle=orthogonalEdgeStyle;rounded=1;orthogonalLoop=1;jettySize=auto;html=1;exitX=0.5;exitY=0;exitDx=0;exitDy=0;entryX=0.5;entryY=1;entryDx=0;entryDy=0;dashed=1;dashPattern=8 8;strokeWidth=2;" parent="1" source="t250KOip2t7O9ZdYjOZ2-18" target="t250KOip2t7O9ZdYjOZ2-3" edge="1">
          <mxGeometry relative="1" as="geometry" />
        </mxCell>
        <mxCell id="t250KOip2t7O9ZdYjOZ2-18" value="EU" style="ellipse;whiteSpace=wrap;html=1;strokeWidth=2;" parent="1" vertex="1">
          <mxGeometry x="720" y="210" width="70" height="40" as="geometry" />
        </mxCell>
        <mxCell id="t250KOip2t7O9ZdYjOZ2-19" style="edgeStyle=orthogonalEdgeStyle;rounded=1;orthogonalLoop=1;jettySize=auto;html=1;exitX=0.5;exitY=0;exitDx=0;exitDy=0;dashed=1;dashPattern=8 8;strokeWidth=2;" parent="1" source="t250KOip2t7O9ZdYjOZ2-20" target="t250KOip2t7O9ZdYjOZ2-14" edge="1">
          <mxGeometry relative="1" as="geometry" />
        </mxCell>
        <mxCell id="t250KOip2t7O9ZdYjOZ2-20" value="European Union" style="ellipse;whiteSpace=wrap;html=1;strokeWidth=2;" parent="1" vertex="1">
          <mxGeometry x="120" y="440" width="80" height="40" as="geometry" />
        </mxCell>
        <mxCell id="vwV-dFgjUO3bdd6PJHQK-12" style="edgeStyle=orthogonalEdgeStyle;rounded=0;orthogonalLoop=1;jettySize=auto;html=1;exitX=0.5;exitY=1;exitDx=0;exitDy=0;entryX=0.5;entryY=1;entryDx=0;entryDy=0;strokeWidth=2;" edge="1" parent="1" source="t250KOip2t7O9ZdYjOZ2-21" target="t250KOip2t7O9ZdYjOZ2-24">
          <mxGeometry relative="1" as="geometry">
            <Array as="points">
              <mxPoint x="80" y="670" />
              <mxPoint x="550" y="670" />
              <mxPoint x="550" y="590" />
              <mxPoint x="548" y="590" />
            </Array>
          </mxGeometry>
        </mxCell>
        <mxCell id="vwV-dFgjUO3bdd6PJHQK-13" value="&lt;font style=&quot;font-size: 20px;&quot;&gt;1...&lt;/font&gt;" style="edgeLabel;html=1;align=center;verticalAlign=middle;resizable=0;points=[];" vertex="1" connectable="0" parent="vwV-dFgjUO3bdd6PJHQK-12">
          <mxGeometry x="-0.9282" relative="1" as="geometry">
            <mxPoint as="offset" />
          </mxGeometry>
        </mxCell>
        <mxCell id="vwV-dFgjUO3bdd6PJHQK-14" value="&lt;font style=&quot;font-size: 20px;&quot;&gt;1...&lt;/font&gt;" style="edgeLabel;html=1;align=center;verticalAlign=middle;resizable=0;points=[];" vertex="1" connectable="0" parent="vwV-dFgjUO3bdd6PJHQK-12">
          <mxGeometry x="0.9031" y="-1" relative="1" as="geometry">
            <mxPoint as="offset" />
          </mxGeometry>
        </mxCell>
        <mxCell id="vwV-dFgjUO3bdd6PJHQK-15" value="&lt;font style=&quot;font-size: 14px;&quot;&gt;includes&lt;/font&gt;" style="edgeLabel;html=1;align=center;verticalAlign=middle;resizable=0;points=[];" vertex="1" connectable="0" parent="vwV-dFgjUO3bdd6PJHQK-12">
          <mxGeometry x="-0.0306" y="1" relative="1" as="geometry">
            <mxPoint as="offset" />
          </mxGeometry>
        </mxCell>
        <mxCell id="t250KOip2t7O9ZdYjOZ2-21" value="GDPR_Articles" style="ellipse;whiteSpace=wrap;html=1;strokeWidth=2;" parent="1" vertex="1">
          <mxGeometry x="30" y="520" width="100" height="40" as="geometry" />
        </mxCell>
        <mxCell id="t250KOip2t7O9ZdYjOZ2-22" style="edgeStyle=orthogonalEdgeStyle;rounded=0;orthogonalLoop=1;jettySize=auto;html=1;exitX=0.5;exitY=0;exitDx=0;exitDy=0;dashed=1;dashPattern=8 8;strokeWidth=2;" parent="1" source="t250KOip2t7O9ZdYjOZ2-23" target="t250KOip2t7O9ZdYjOZ2-20" edge="1">
          <mxGeometry relative="1" as="geometry" />
        </mxCell>
        <mxCell id="vwV-dFgjUO3bdd6PJHQK-16" style="edgeStyle=orthogonalEdgeStyle;rounded=0;orthogonalLoop=1;jettySize=auto;html=1;exitX=0;exitY=0.5;exitDx=0;exitDy=0;entryX=1;entryY=0.5;entryDx=0;entryDy=0;strokeWidth=2;" edge="1" parent="1" source="t250KOip2t7O9ZdYjOZ2-23" target="t250KOip2t7O9ZdYjOZ2-21">
          <mxGeometry relative="1" as="geometry" />
        </mxCell>
        <mxCell id="vwV-dFgjUO3bdd6PJHQK-17" value="&lt;font style=&quot;font-size: 20px;&quot;&gt;1&lt;/font&gt;" style="edgeLabel;html=1;align=center;verticalAlign=middle;resizable=0;points=[];" vertex="1" connectable="0" parent="vwV-dFgjUO3bdd6PJHQK-16">
          <mxGeometry x="-0.8244" relative="1" as="geometry">
            <mxPoint x="-7" as="offset" />
          </mxGeometry>
        </mxCell>
        <mxCell id="vwV-dFgjUO3bdd6PJHQK-18" value="&lt;font style=&quot;font-size: 20px;&quot;&gt;1...&lt;/font&gt;" style="edgeLabel;html=1;align=center;verticalAlign=middle;resizable=0;points=[];" vertex="1" connectable="0" parent="vwV-dFgjUO3bdd6PJHQK-16">
          <mxGeometry x="0.6311" y="-2" relative="1" as="geometry">
            <mxPoint x="3" y="2" as="offset" />
          </mxGeometry>
        </mxCell>
        <mxCell id="vwV-dFgjUO3bdd6PJHQK-19" value="&lt;font style=&quot;font-size: 14px;&quot;&gt;includes&lt;/font&gt;" style="edgeLabel;html=1;align=center;verticalAlign=middle;resizable=0;points=[];" vertex="1" connectable="0" parent="vwV-dFgjUO3bdd6PJHQK-16">
          <mxGeometry x="0.0422" y="-2" relative="1" as="geometry">
            <mxPoint x="8" as="offset" />
          </mxGeometry>
        </mxCell>
        <mxCell id="t250KOip2t7O9ZdYjOZ2-23" value="GDPR_Chapters" style="ellipse;whiteSpace=wrap;html=1;strokeWidth=2;" parent="1" vertex="1">
          <mxGeometry x="330" y="520" width="100" height="40" as="geometry" />
        </mxCell>
        <mxCell id="t250KOip2t7O9ZdYjOZ2-24" value="GDPR_Keywords" style="ellipse;whiteSpace=wrap;html=1;strokeWidth=2;" parent="1" vertex="1">
          <mxGeometry x="498.33" y="520" width="100" height="40" as="geometry" />
        </mxCell>
        <mxCell id="t250KOip2t7O9ZdYjOZ2-25" style="edgeStyle=orthogonalEdgeStyle;rounded=1;orthogonalLoop=1;jettySize=auto;html=1;exitX=0.5;exitY=0;exitDx=0;exitDy=0;dashed=1;dashPattern=8 8;entryX=0.5;entryY=1;entryDx=0;entryDy=0;strokeWidth=2;" parent="1" source="t250KOip2t7O9ZdYjOZ2-21" target="t250KOip2t7O9ZdYjOZ2-20" edge="1">
          <mxGeometry relative="1" as="geometry">
            <mxPoint x="88" y="479.5" as="sourcePoint" />
            <mxPoint x="50" y="429.5" as="targetPoint" />
          </mxGeometry>
        </mxCell>
        <mxCell id="t250KOip2t7O9ZdYjOZ2-26" style="edgeStyle=orthogonalEdgeStyle;rounded=1;orthogonalLoop=1;jettySize=auto;html=1;exitX=0.5;exitY=0;exitDx=0;exitDy=0;dashed=1;dashPattern=8 8;entryX=0.5;entryY=1;entryDx=0;entryDy=0;strokeWidth=2;" parent="1" source="t250KOip2t7O9ZdYjOZ2-24" target="t250KOip2t7O9ZdYjOZ2-20" edge="1">
          <mxGeometry relative="1" as="geometry">
            <mxPoint x="20" y="530" as="sourcePoint" />
            <mxPoint x="170" y="490" as="targetPoint" />
          </mxGeometry>
        </mxCell>
        <mxCell id="t250KOip2t7O9ZdYjOZ2-29" value="Program" style="ellipse;whiteSpace=wrap;html=1;strokeWidth=2;fillColor=#dae8fc;strokeColor=#6c8ebf;" parent="1" vertex="1">
          <mxGeometry x="470" y="360" width="120" height="60" as="geometry" />
        </mxCell>
        <mxCell id="t250KOip2t7O9ZdYjOZ2-32" value="Strategy" style="ellipse;whiteSpace=wrap;html=1;strokeWidth=2;fillColor=#dae8fc;strokeColor=#6c8ebf;" parent="1" vertex="1">
          <mxGeometry x="470" y="290" width="120" height="60" as="geometry" />
        </mxCell>
        <mxCell id="t250KOip2t7O9ZdYjOZ2-35" style="edgeStyle=orthogonalEdgeStyle;rounded=1;orthogonalLoop=1;jettySize=auto;html=1;exitX=1;exitY=0.5;exitDx=0;exitDy=0;entryX=0;entryY=0.5;entryDx=0;entryDy=0;strokeWidth=2;fontSize=12;" parent="1" source="t250KOip2t7O9ZdYjOZ2-14" target="t250KOip2t7O9ZdYjOZ2-32" edge="1">
          <mxGeometry relative="1" as="geometry">
            <mxPoint x="230" y="360" as="sourcePoint" />
            <mxPoint x="480" y="440" as="targetPoint" />
            <Array as="points">
              <mxPoint x="300" y="350" />
              <mxPoint x="300" y="320" />
            </Array>
          </mxGeometry>
        </mxCell>
        <mxCell id="t250KOip2t7O9ZdYjOZ2-36" value="&lt;font style=&quot;font-size: 14px;&quot;&gt;requires&lt;/font&gt;" style="edgeLabel;html=1;align=center;verticalAlign=middle;resizable=0;points=[];" parent="t250KOip2t7O9ZdYjOZ2-35" vertex="1" connectable="0">
          <mxGeometry x="-0.2" y="-3" relative="1" as="geometry">
            <mxPoint as="offset" />
          </mxGeometry>
        </mxCell>
        <mxCell id="t250KOip2t7O9ZdYjOZ2-71" value="&lt;font style=&quot;font-size: 20px;&quot;&gt;1&lt;/font&gt;" style="edgeLabel;html=1;align=center;verticalAlign=middle;resizable=0;points=[];" parent="t250KOip2t7O9ZdYjOZ2-35" vertex="1" connectable="0">
          <mxGeometry x="-0.8786" y="4" relative="1" as="geometry">
            <mxPoint x="3" y="-6" as="offset" />
          </mxGeometry>
        </mxCell>
        <mxCell id="t250KOip2t7O9ZdYjOZ2-41" style="edgeStyle=orthogonalEdgeStyle;rounded=1;orthogonalLoop=1;jettySize=auto;html=1;exitX=0;exitY=0.5;exitDx=0;exitDy=0;entryX=0;entryY=1;entryDx=0;entryDy=0;strokeWidth=2;fontSize=12;" parent="1" source="t250KOip2t7O9ZdYjOZ2-49" target="t250KOip2t7O9ZdYjOZ2-21" edge="1">
          <mxGeometry relative="1" as="geometry" />
        </mxCell>
        <mxCell id="t250KOip2t7O9ZdYjOZ2-42" value="&lt;font style=&quot;font-size: 14px;&quot;&gt;involves&lt;/font&gt;" style="edgeLabel;html=1;align=center;verticalAlign=middle;resizable=0;points=[];" parent="t250KOip2t7O9ZdYjOZ2-41" vertex="1" connectable="0">
          <mxGeometry x="-0.2098" relative="1" as="geometry">
            <mxPoint as="offset" />
          </mxGeometry>
        </mxCell>
        <mxCell id="t250KOip2t7O9ZdYjOZ2-79" value="&lt;font style=&quot;font-size: 20px;&quot;&gt;1...&lt;/font&gt;" style="edgeLabel;html=1;align=center;verticalAlign=middle;resizable=0;points=[];" parent="t250KOip2t7O9ZdYjOZ2-41" vertex="1" connectable="0">
          <mxGeometry x="-0.9074" relative="1" as="geometry">
            <mxPoint x="-5" y="-4" as="offset" />
          </mxGeometry>
        </mxCell>
        <mxCell id="t250KOip2t7O9ZdYjOZ2-49" value="Capabilities" style="ellipse;whiteSpace=wrap;html=1;strokeWidth=2;fillColor=#dae8fc;strokeColor=#6c8ebf;" parent="1" vertex="1">
          <mxGeometry x="478.33" y="690" width="120" height="60" as="geometry" />
        </mxCell>
        <mxCell id="t250KOip2t7O9ZdYjOZ2-59" value="Enterprise Aspect" style="ellipse;whiteSpace=wrap;html=1;strokeWidth=2;fillColor=#dae8fc;strokeColor=#6c8ebf;" parent="1" vertex="1">
          <mxGeometry x="478.33" y="770" width="120" height="60" as="geometry" />
        </mxCell>
        <mxCell id="t250KOip2t7O9ZdYjOZ2-63" style="edgeStyle=orthogonalEdgeStyle;rounded=1;orthogonalLoop=1;jettySize=auto;html=1;exitX=0;exitY=0.5;exitDx=0;exitDy=0;entryX=0;entryY=1;entryDx=0;entryDy=0;strokeWidth=2;fontSize=12;" parent="1" source="t250KOip2t7O9ZdYjOZ2-59" target="t250KOip2t7O9ZdYjOZ2-21" edge="1">
          <mxGeometry relative="1" as="geometry">
            <mxPoint x="470" y="810" as="sourcePoint" />
            <mxPoint x="10" y="660" as="targetPoint" />
          </mxGeometry>
        </mxCell>
        <mxCell id="t250KOip2t7O9ZdYjOZ2-64" value="&lt;font style=&quot;font-size: 14px;&quot;&gt;involves&lt;/font&gt;" style="edgeLabel;html=1;align=center;verticalAlign=middle;resizable=0;points=[];" parent="t250KOip2t7O9ZdYjOZ2-63" vertex="1" connectable="0">
          <mxGeometry x="-0.2098" relative="1" as="geometry">
            <mxPoint x="35" as="offset" />
          </mxGeometry>
        </mxCell>
        <mxCell id="t250KOip2t7O9ZdYjOZ2-80" value="&lt;font style=&quot;font-size: 20px;&quot;&gt;1...&lt;/font&gt;" style="edgeLabel;html=1;align=center;verticalAlign=middle;resizable=0;points=[];" parent="t250KOip2t7O9ZdYjOZ2-63" vertex="1" connectable="0">
          <mxGeometry x="0.9161" relative="1" as="geometry">
            <mxPoint y="14" as="offset" />
          </mxGeometry>
        </mxCell>
        <mxCell id="t250KOip2t7O9ZdYjOZ2-81" value="&lt;font style=&quot;font-size: 20px;&quot;&gt;1...&lt;/font&gt;" style="edgeLabel;html=1;align=center;verticalAlign=middle;resizable=0;points=[];" parent="t250KOip2t7O9ZdYjOZ2-63" vertex="1" connectable="0">
          <mxGeometry x="-0.9097" y="-5" relative="1" as="geometry">
            <mxPoint x="-1" y="1" as="offset" />
          </mxGeometry>
        </mxCell>
        <mxCell id="t250KOip2t7O9ZdYjOZ2-69" value="&lt;font style=&quot;font-size: 20px;&quot;&gt;1...&lt;/font&gt;" style="edgeLabel;html=1;align=center;verticalAlign=middle;resizable=0;points=[];" parent="1" vertex="1" connectable="0">
          <mxGeometry x="815" y="110" as="geometry">
            <mxPoint x="161" y="183" as="offset" />
          </mxGeometry>
        </mxCell>
        <mxCell id="t250KOip2t7O9ZdYjOZ2-72" value="&lt;font style=&quot;font-size: 20px;&quot;&gt;1...&lt;/font&gt;" style="edgeLabel;html=1;align=center;verticalAlign=middle;resizable=0;points=[];" parent="1" vertex="1" connectable="0">
          <mxGeometry x="250" y="360" as="geometry">
            <mxPoint x="176" y="-47" as="offset" />
          </mxGeometry>
        </mxCell>
        <mxCell id="t250KOip2t7O9ZdYjOZ2-73" value="&lt;span style=&quot;color: rgb(0, 0, 0); font-family: Helvetica; font-size: 20px; font-style: normal; font-variant-ligatures: normal; font-variant-caps: normal; font-weight: 400; letter-spacing: normal; orphans: 2; text-align: center; text-indent: 0px; text-transform: none; widows: 2; word-spacing: 0px; -webkit-text-stroke-width: 0px; background-color: rgb(255, 255, 255); text-decoration-thickness: initial; text-decoration-style: initial; text-decoration-color: initial; float: none; display: inline !important;&quot;&gt;1...&lt;/span&gt;" style="text;whiteSpace=wrap;html=1;" parent="1" vertex="1">
          <mxGeometry x="414" y="365" width="60" height="50" as="geometry" />
        </mxCell>
        <mxCell id="t250KOip2t7O9ZdYjOZ2-82" value="GDPR" style="ellipse;whiteSpace=wrap;html=1;strokeWidth=2;" parent="1" vertex="1">
          <mxGeometry x="-220" y="520" width="100" height="40" as="geometry" />
        </mxCell>
        <mxCell id="t250KOip2t7O9ZdYjOZ2-86" style="edgeStyle=orthogonalEdgeStyle;rounded=0;orthogonalLoop=1;jettySize=auto;html=1;exitX=0.5;exitY=0;exitDx=0;exitDy=0;dashed=1;dashPattern=8 8;strokeWidth=2;entryX=0.5;entryY=1;entryDx=0;entryDy=0;" parent="1" source="t250KOip2t7O9ZdYjOZ2-82" target="t250KOip2t7O9ZdYjOZ2-20" edge="1">
          <mxGeometry relative="1" as="geometry">
            <mxPoint x="235" y="530" as="sourcePoint" />
            <mxPoint x="170" y="490" as="targetPoint" />
          </mxGeometry>
        </mxCell>
        <mxCell id="t250KOip2t7O9ZdYjOZ2-87" value="" style="rounded=0;whiteSpace=wrap;html=1;fillColor=#dae8fc;strokeColor=#6c8ebf;" parent="1" vertex="1">
          <mxGeometry x="800" y="675" width="30" height="20" as="geometry" />
        </mxCell>
        <mxCell id="t250KOip2t7O9ZdYjOZ2-88" value="&lt;font style=&quot;font-size: 18px;&quot;&gt;= Abstract Class&lt;/font&gt;" style="text;html=1;strokeColor=none;fillColor=none;align=center;verticalAlign=middle;whiteSpace=wrap;rounded=0;" parent="1" vertex="1">
          <mxGeometry x="827" y="670" width="150" height="30" as="geometry" />
        </mxCell>
        <mxCell id="t250KOip2t7O9ZdYjOZ2-94" style="edgeStyle=orthogonalEdgeStyle;rounded=0;orthogonalLoop=1;jettySize=auto;html=1;exitX=0;exitY=0.5;exitDx=0;exitDy=0;strokeWidth=2;fontSize=12;entryX=1;entryY=0.5;entryDx=0;entryDy=0;" parent="1" source="t250KOip2t7O9ZdYjOZ2-3" target="t250KOip2t7O9ZdYjOZ2-11" edge="1">
          <mxGeometry relative="1" as="geometry">
            <mxPoint x="667" y="141" as="sourcePoint" />
            <mxPoint x="213" y="339" as="targetPoint" />
            <Array as="points">
              <mxPoint x="440" y="110" />
              <mxPoint x="440" y="110" />
            </Array>
          </mxGeometry>
        </mxCell>
        <mxCell id="t250KOip2t7O9ZdYjOZ2-95" value="&lt;font style=&quot;font-size: 14px;&quot;&gt;belongsTo&lt;/font&gt;" style="edgeLabel;html=1;align=center;verticalAlign=middle;resizable=0;points=[];" parent="t250KOip2t7O9ZdYjOZ2-94" vertex="1" connectable="0">
          <mxGeometry x="-0.075" y="-3" relative="1" as="geometry">
            <mxPoint as="offset" />
          </mxGeometry>
        </mxCell>
        <mxCell id="t250KOip2t7O9ZdYjOZ2-96" value="&lt;font style=&quot;font-size: 20px;&quot;&gt;1...&lt;/font&gt;" style="edgeLabel;html=1;align=center;verticalAlign=middle;resizable=0;points=[];" parent="t250KOip2t7O9ZdYjOZ2-94" vertex="1" connectable="0">
          <mxGeometry x="-0.9286" y="3" relative="1" as="geometry">
            <mxPoint x="-33" y="-9" as="offset" />
          </mxGeometry>
        </mxCell>
        <mxCell id="t250KOip2t7O9ZdYjOZ2-97" value="&lt;font style=&quot;font-size: 20px;&quot;&gt;1&lt;/font&gt;" style="edgeLabel;html=1;align=center;verticalAlign=middle;resizable=0;points=[];" parent="t250KOip2t7O9ZdYjOZ2-94" vertex="1" connectable="0">
          <mxGeometry x="0.8292" relative="1" as="geometry">
            <mxPoint y="-10" as="offset" />
          </mxGeometry>
        </mxCell>
        <mxCell id="vwV-dFgjUO3bdd6PJHQK-5" style="edgeStyle=orthogonalEdgeStyle;rounded=0;orthogonalLoop=1;jettySize=auto;html=1;exitX=1;exitY=0.5;exitDx=0;exitDy=0;entryX=0;entryY=0.5;entryDx=0;entryDy=0;strokeWidth=2;" edge="1" parent="1" source="t250KOip2t7O9ZdYjOZ2-82" target="t250KOip2t7O9ZdYjOZ2-21">
          <mxGeometry relative="1" as="geometry">
            <Array as="points">
              <mxPoint x="-70" y="540" />
              <mxPoint x="-70" y="540" />
            </Array>
          </mxGeometry>
        </mxCell>
        <mxCell id="vwV-dFgjUO3bdd6PJHQK-6" value="&lt;font style=&quot;font-size: 14px;&quot;&gt;includes&lt;/font&gt;" style="edgeLabel;html=1;align=center;verticalAlign=middle;resizable=0;points=[];" vertex="1" connectable="0" parent="vwV-dFgjUO3bdd6PJHQK-5">
          <mxGeometry x="0.0395" y="-2" relative="1" as="geometry">
            <mxPoint x="-12" as="offset" />
          </mxGeometry>
        </mxCell>
        <mxCell id="vwV-dFgjUO3bdd6PJHQK-7" value="&lt;font style=&quot;font-size: 20px;&quot;&gt;1...&lt;/font&gt;" style="edgeLabel;html=1;align=center;verticalAlign=middle;resizable=0;points=[];" vertex="1" connectable="0" parent="vwV-dFgjUO3bdd6PJHQK-5">
          <mxGeometry x="0.7315" y="-1" relative="1" as="geometry">
            <mxPoint x="-15" y="-1" as="offset" />
          </mxGeometry>
        </mxCell>
        <mxCell id="vwV-dFgjUO3bdd6PJHQK-10" value="&lt;font style=&quot;font-size: 20px;&quot;&gt;1&lt;/font&gt;" style="edgeLabel;html=1;align=center;verticalAlign=middle;resizable=0;points=[];" vertex="1" connectable="0" parent="vwV-dFgjUO3bdd6PJHQK-5">
          <mxGeometry x="-0.7793" y="-1" relative="1" as="geometry">
            <mxPoint as="offset" />
          </mxGeometry>
        </mxCell>
      </root>
    </mxGraphModel>
  </diagram>
</mxfile>
